<svg width="1407" height="272" viewBox="0 0 1407 272" fill="none" xmlns="http://www.w3.org/2000/svg">
<circle cx="137.855" cy="135.855" r="105.855" fill="#CC3743"/>
<path d="M365.222 114.53L360.547 119.36C356.669 115.586 352.878 113.699 349.173 113.699C346.819 113.699 344.794 114.478 343.097 116.036C341.435 117.594 340.604 119.412 340.604 121.489C340.604 123.324 341.297 125.073 342.682 126.735C344.066 128.431 346.975 130.422 351.407 132.707C356.808 135.512 360.478 138.213 362.417 140.809C364.321 143.441 365.273 146.401 365.273 149.69C365.273 154.33 363.646 158.26 360.392 161.48C357.137 164.7 353.069 166.31 348.187 166.31C344.932 166.31 341.816 165.6 338.838 164.18C335.895 162.761 333.454 160.805 331.515 158.312L336.086 153.118C339.79 157.308 343.72 159.402 347.875 159.402C350.783 159.402 353.259 158.467 355.302 156.598C357.345 154.728 358.366 152.529 358.366 150.002C358.366 147.925 357.691 146.072 356.341 144.445C354.99 142.852 351.943 140.844 347.2 138.42C342.11 135.789 338.648 133.192 336.813 130.63C334.978 128.068 334.06 125.142 334.06 121.853C334.06 117.56 335.514 113.993 338.423 111.154C341.366 108.315 345.071 106.896 349.537 106.896C354.731 106.896 359.959 109.44 365.222 114.53ZM396.082 108.35H403.404V134.733C403.404 141.173 403.751 145.605 404.443 148.028C405.482 151.491 407.455 154.226 410.364 156.234C413.307 158.242 416.804 159.246 420.855 159.246C424.906 159.246 428.333 158.277 431.138 156.338C433.977 154.365 435.933 151.785 437.007 148.6C437.734 146.418 438.097 141.796 438.097 134.733V108.35H445.524V136.083C445.524 143.874 444.606 149.742 442.771 153.689C440.971 157.636 438.236 160.735 434.566 162.986C430.93 165.202 426.36 166.31 420.855 166.31C415.35 166.31 410.745 165.202 407.04 162.986C403.37 160.735 400.617 157.619 398.782 153.637C396.982 149.621 396.082 143.597 396.082 135.564V108.35ZM480.591 108.35H487.862V118.477C490.77 114.599 493.99 111.708 497.522 109.804C501.053 107.865 504.897 106.896 509.051 106.896C513.275 106.896 517.015 107.969 520.269 110.116C523.559 112.262 525.982 115.153 527.54 118.789C529.098 122.424 529.877 128.085 529.877 135.772V164.855H522.658V137.901C522.658 131.392 522.381 127.047 521.827 124.865C520.962 121.126 519.335 118.321 516.946 116.452C514.557 114.547 511.44 113.595 507.597 113.595C503.2 113.595 499.253 115.049 495.756 117.958C492.294 120.866 490.008 124.467 488.9 128.76C488.208 131.565 487.862 136.689 487.862 144.133V164.855H480.591V108.35ZM620.775 86.5369V164.855H613.608V155.144C610.561 158.848 607.133 161.635 603.324 163.505C599.55 165.375 595.413 166.31 590.912 166.31C582.914 166.31 576.076 163.419 570.397 157.636C564.754 151.82 561.932 144.756 561.932 136.447C561.932 128.31 564.788 121.351 570.501 115.569C576.214 109.787 583.087 106.896 591.12 106.896C595.759 106.896 599.949 107.882 603.688 109.856C607.462 111.829 610.769 114.79 613.608 118.737V86.5369H620.775ZM591.691 113.907C587.64 113.907 583.901 114.911 580.473 116.919C577.045 118.893 574.31 121.68 572.267 125.281C570.259 128.882 569.255 132.69 569.255 136.706C569.255 140.688 570.276 144.497 572.319 148.132C574.362 151.768 577.097 154.607 580.525 156.65C583.987 158.658 587.692 159.662 591.639 159.662C595.621 159.662 599.395 158.658 602.961 156.65C606.527 154.642 609.262 151.924 611.167 148.496C613.106 145.068 614.075 141.208 614.075 136.914C614.075 130.37 611.911 124.9 607.583 120.503C603.29 116.105 597.992 113.907 591.691 113.907ZM712.451 108.35V164.855H705.284V155.144C702.237 158.848 698.809 161.635 695.001 163.505C691.227 165.375 687.089 166.31 682.588 166.31C674.59 166.31 667.752 163.419 662.074 157.636C656.43 151.82 653.608 144.756 653.608 136.447C653.608 128.31 656.465 121.351 662.178 115.569C667.89 109.787 674.763 106.896 682.796 106.896C687.435 106.896 691.625 107.882 695.364 109.856C699.138 111.829 702.445 114.79 705.284 118.737V108.35H712.451ZM683.367 113.907C679.316 113.907 675.577 114.911 672.149 116.919C668.721 118.893 665.986 121.68 663.943 125.281C661.935 128.882 660.931 132.69 660.931 136.706C660.931 140.688 661.953 144.497 663.995 148.132C666.038 151.768 668.773 154.607 672.201 156.65C675.663 158.658 679.368 159.662 683.315 159.662C687.297 159.662 691.071 158.658 694.637 156.65C698.203 154.642 700.939 151.924 702.843 148.496C704.782 145.068 705.751 141.208 705.751 136.914C705.751 130.37 703.587 124.9 699.259 120.503C694.966 116.105 689.669 113.907 683.367 113.907ZM741.649 108.35H749.336L768.759 151.872L787.612 108.35H795.35L761.644 185.526H753.958L764.864 160.597L741.649 108.35ZM836.753 108.35V114.582C839.315 112.02 842.085 110.098 845.063 108.817C848.04 107.536 851.226 106.896 854.619 106.896C861.994 106.896 868.261 109.683 873.42 115.257C878.578 120.832 881.158 127.981 881.158 136.706C881.158 145.12 878.492 152.166 873.16 157.844C867.828 163.488 861.509 166.31 854.203 166.31C850.949 166.31 847.919 165.738 845.115 164.596C842.31 163.419 839.523 161.514 836.753 158.883V185.526H822.679V108.35H836.753ZM851.659 119.983C847.192 119.983 843.487 121.507 840.544 124.554C837.601 127.6 836.13 131.582 836.13 136.499C836.13 141.519 837.601 145.587 840.544 148.704C843.487 151.785 847.192 153.326 851.659 153.326C855.987 153.326 859.622 151.75 862.565 148.6C865.543 145.449 867.032 141.433 867.032 136.551C867.032 131.703 865.577 127.739 862.669 124.657C859.761 121.541 856.09 119.983 851.659 119.983ZM905.786 108.35H920.276L934.973 143.822L951.177 108.35H965.719L930.299 185.526H915.653L927.287 160.649L905.786 108.35ZM999.591 85.0827C1002.12 85.0827 1004.27 85.9829 1006.03 87.7834C1007.83 89.5838 1008.73 91.7651 1008.73 94.3272C1008.73 96.8547 1007.85 99.0187 1006.08 100.819C1004.32 102.62 1002.21 103.52 999.747 103.52C997.22 103.52 995.056 102.602 993.255 100.767C991.489 98.9322 990.607 96.7163 990.607 94.1195C990.607 91.6266 991.472 89.4972 993.203 87.7314C994.969 85.9656 997.098 85.0827 999.591 85.0827ZM992.528 108.35H1006.71V166.725C1006.71 172.092 1006.17 176.091 1005.1 178.722C1004.06 181.388 1002.4 183.431 1000.11 184.851C997.826 186.27 995.073 186.98 991.853 186.98C989.014 186.98 985.482 186.27 981.258 184.851V173.684C983.474 174.758 985.43 175.294 987.127 175.294C988.927 175.294 990.278 174.758 991.178 173.684C992.078 172.611 992.528 170.638 992.528 167.764V108.35ZM1081.5 108.35H1095.63V164.855H1081.5V158.883C1078.73 161.514 1075.95 163.419 1073.14 164.596C1070.37 165.738 1067.36 166.31 1064.11 166.31C1056.8 166.31 1050.48 163.488 1045.15 157.844C1039.82 152.166 1037.15 145.12 1037.15 136.706C1037.15 127.981 1039.73 120.832 1044.89 115.257C1050.05 109.683 1056.32 106.896 1063.69 106.896C1067.08 106.896 1070.27 107.536 1073.25 108.817C1076.22 110.098 1078.98 112.02 1081.5 114.582V108.35ZM1066.6 119.983C1062.2 119.983 1058.55 121.541 1055.64 124.657C1052.73 127.739 1051.28 131.703 1051.28 136.551C1051.28 141.433 1052.75 145.449 1055.69 148.6C1058.67 151.75 1062.32 153.326 1066.65 153.326C1071.12 153.326 1074.82 151.785 1077.76 148.704C1080.71 145.587 1082.18 141.519 1082.18 136.499C1082.18 131.582 1080.71 127.6 1077.76 124.554C1074.82 121.507 1071.1 119.983 1066.6 119.983ZM1129.04 108.35H1143.27V114.842C1145.69 112.176 1148.37 110.185 1151.32 108.869C1154.29 107.553 1157.53 106.896 1161.03 106.896C1164.56 106.896 1167.74 107.761 1170.58 109.492C1173.42 111.224 1175.71 113.751 1177.44 117.075C1179.69 113.751 1182.44 111.224 1185.7 109.492C1188.99 107.761 1192.57 106.896 1196.45 106.896C1200.46 106.896 1204 107.83 1207.04 109.7C1210.09 111.57 1212.27 114.011 1213.59 117.023C1214.94 120.035 1215.61 124.934 1215.61 131.721V164.855H1201.33V136.187C1201.33 129.782 1200.53 125.454 1198.94 123.203C1197.35 120.918 1194.96 119.776 1191.77 119.776C1189.35 119.776 1187.17 120.468 1185.23 121.853C1183.32 123.238 1181.91 125.16 1180.97 127.618C1180.04 130.041 1179.57 133.954 1179.57 139.355V164.855H1165.29V137.486C1165.29 132.43 1164.91 128.778 1164.14 126.527C1163.42 124.242 1162.31 122.545 1160.82 121.437C1159.33 120.33 1157.53 119.776 1155.42 119.776C1153.06 119.776 1150.92 120.485 1148.98 121.905C1147.07 123.29 1145.64 125.246 1144.67 127.774C1143.73 130.301 1143.27 134.283 1143.27 139.719V164.855H1129.04V108.35ZM1290.1 108.35H1304.22V164.855H1290.1V158.883C1287.33 161.514 1284.54 163.419 1281.74 164.596C1278.97 165.738 1275.95 166.31 1272.7 166.31C1265.39 166.31 1259.07 163.488 1253.74 157.844C1248.41 152.166 1245.74 145.12 1245.74 136.706C1245.74 127.981 1248.32 120.832 1253.48 115.257C1258.64 109.683 1264.91 106.896 1272.28 106.896C1275.68 106.896 1278.86 107.536 1281.84 108.817C1284.82 110.098 1287.57 112.02 1290.1 114.582V108.35ZM1275.19 119.983C1270.79 119.983 1267.14 121.541 1264.23 124.657C1261.32 127.739 1259.87 131.703 1259.87 136.551C1259.87 141.433 1261.34 145.449 1264.29 148.6C1267.26 151.75 1270.92 153.326 1275.24 153.326C1279.71 153.326 1283.41 151.785 1286.36 148.704C1289.3 145.587 1290.77 141.519 1290.77 136.499C1290.77 131.582 1289.3 127.6 1286.36 124.554C1283.41 121.507 1279.69 119.983 1275.19 119.983ZM1372.32 116.244L1363.54 125.021C1359.98 121.489 1356.74 119.724 1353.83 119.724C1352.24 119.724 1350.99 120.07 1350.09 120.762C1349.19 121.42 1348.74 122.251 1348.74 123.255C1348.74 124.017 1349.02 124.727 1349.57 125.385C1350.16 126.008 1351.58 126.873 1353.83 127.981L1359.03 130.578C1364.5 133.279 1368.25 136.031 1370.3 138.836C1372.34 141.64 1373.36 144.93 1373.36 148.704C1373.36 153.724 1371.51 157.913 1367.8 161.272C1364.13 164.63 1359.2 166.31 1353 166.31C1344.76 166.31 1338.18 163.09 1333.27 156.65L1341.99 147.146C1343.65 149.084 1345.59 150.66 1347.81 151.872C1350.06 153.049 1352.05 153.637 1353.78 153.637C1355.65 153.637 1357.16 153.187 1358.3 152.287C1359.44 151.387 1360.01 150.348 1360.01 149.171C1360.01 146.99 1357.95 144.86 1353.83 142.783L1349.05 140.394C1339.91 135.789 1335.34 130.024 1335.34 123.099C1335.34 118.633 1337.06 114.824 1340.48 111.674C1343.95 108.488 1348.36 106.896 1353.73 106.896C1357.4 106.896 1360.84 107.709 1364.06 109.337C1367.32 110.929 1370.07 113.232 1372.32 116.244Z" fill="white"/>
</svg>
